<svg width="50" height="44" viewBox="0 0 50 44" fill="none" xmlns="http://www.w3.org/2000/svg">
<path d="M45 0C46.375 0 47.5521 0.478703 48.5313 1.43611C49.5104 2.39352 50 3.54445 50 4.88889L50 39.1111C50 40.4556 49.5104 41.6065 48.5312 42.5639C47.5521 43.5213 46.375 44 45 44L10 44C8.625 44 7.44792 43.5213 6.46875 42.5639C5.48958 41.6065 5 40.4556 5 39.1111V34.2222H0V29.3333H5V24.4444H0V19.5556H5L5 14.6667H0V9.77778H5V4.88889C5 3.54445 5.48958 2.39352 6.46875 1.43611C7.44792 0.478703 8.625 0 10 0L45 0ZM45 4.88889L10 4.88889L10 39.1111L45 39.1111L45 4.88889ZM40 9.77778H27.5V19.5556L40 19.5556V9.77778ZM25 26.8889H15V34.2222H25L25 26.8889ZM40 22L27.5 22L27.5 34.2222H40V22ZM25 9.77778L15 9.77778L15 24.4444H25V9.77778Z" fill="white"/>
</svg>
